<svg width="110" height="70" viewBox="0 0 110 70" fill="none" xmlns="http://www.w3.org/2000/svg">
  <path d="M24.1325 30.5888V34.7222C24.1325 37.2444 23.5152 39.1777 22.2693 40.5222C21.0234 41.8666 19.1938 42.5444 16.7693 42.5444C14.3448 42.5444 12.5152 41.8666 11.2693 40.5222C10.0234 39.1777 9.40601 37.2444 9.40601 34.7222V18.5444C9.40601 16.0222 10.0234 14.0888 11.2693 12.7444C12.5152 11.3999 14.3448 10.7222 16.7693 10.7222C19.1938 10.7222 21.0234 11.3999 22.2693 12.7444C23.5152 14.0888 24.1325 16.0222 24.1325 18.5444V21.5666H19.4631V18.2333C19.4631 17.1111 19.2274 16.3111 18.7672 15.8555C18.307 15.3999 17.6785 15.1666 16.904 15.1666C16.1295 15.1666 15.5009 15.3999 15.0407 15.8555C14.5805 16.3111 14.3448 17.1111 14.3448 18.2333V35.0333C14.3448 36.1555 14.5805 36.9444 15.0407 37.3888C15.5009 37.8333 16.1295 38.0555 16.904 38.0555C17.6785 38.0555 18.307 37.8333 18.7672 37.3888C19.2274 36.9444 19.4631 36.1555 19.4631 35.0333V30.5888H24.1325Z" fill="white"></path>
  <path d="M26.7366 18.5444C26.7366 16.0222 27.3764 14.0888 28.6672 12.7444C29.958 11.3999 31.81 10.7222 34.2345 10.7222C36.659 10.7222 38.5111 11.3999 39.8019 12.7444C41.0927 14.0888 41.7325 16.0222 41.7325 18.5444V34.7222C41.7325 37.2444 41.0927 39.1777 39.8019 40.5222C38.5111 41.8666 36.659 42.5444 34.2345 42.5444C31.81 42.5444 29.958 41.8666 28.6672 40.5222C27.3764 39.1777 26.7366 37.2444 26.7366 34.7222V18.5444ZM31.6754 35.0333C31.6754 36.1555 31.9111 36.9555 32.3713 37.4111C32.8315 37.8666 33.46 38.0999 34.2345 38.0999C35.009 38.0999 35.6376 37.8666 36.0978 37.4111C36.558 36.9555 36.7937 36.1555 36.7937 35.0333V18.2333C36.7937 17.1111 36.558 16.3111 36.0978 15.8555C35.6376 15.3999 35.009 15.1666 34.2345 15.1666C33.46 15.1666 32.8315 15.3999 32.3713 15.8555C31.9111 16.3111 31.6754 17.1111 31.6754 18.2333V35.0333Z" fill="white"></path>
  <path d="M44.2917 18.5444C44.2917 16.0222 44.8978 14.0888 46.11 12.7444C47.3223 11.3999 49.1407 10.7222 51.5652 10.7222C53.9896 10.7222 55.808 11.3999 57.0203 12.7444C58.2325 14.0888 58.8386 16.0222 58.8386 18.5444V19.5222H54.1692V18.2333C54.1692 17.1111 53.956 16.3111 53.5182 15.8555C53.0805 15.3999 52.4743 15.1666 51.6998 15.1666C50.9254 15.1666 50.3192 15.3999 49.8815 15.8555C49.4437 16.3111 49.2305 17.1111 49.2305 18.2333C49.2305 19.2999 49.4662 20.2444 49.9488 21.0555C50.4315 21.8666 51.0264 22.6444 51.7447 23.3666C52.4631 24.0888 53.2376 24.8222 54.057 25.5444C54.8764 26.2666 55.6509 27.0666 56.3692 27.9222C57.0876 28.7777 57.6825 29.7555 58.1652 30.8555C58.6478 31.9555 58.8835 33.2444 58.8835 34.7222C58.8835 37.2444 58.2662 39.1777 57.0203 40.5222C55.7743 41.8666 53.9447 42.5444 51.5203 42.5444C49.0958 42.5444 47.2662 41.8666 46.0203 40.5222C44.7743 39.1777 44.157 37.2444 44.157 34.7222V32.8111H48.8264V35.0333C48.8264 36.1555 49.0621 36.9444 49.5223 37.3888C49.9825 37.8333 50.6111 38.0555 51.3856 38.0555C52.1601 38.0555 52.7886 37.8333 53.2488 37.3888C53.709 36.9444 53.9447 36.1555 53.9447 35.0333C53.9447 33.9666 53.709 33.0222 53.2264 32.2111C52.7437 31.3999 52.1488 30.6222 51.4305 29.8999C50.7121 29.1777 49.9376 28.4444 49.1182 27.7222C48.2988 26.9999 47.5243 26.1999 46.806 25.3444C46.0876 24.4888 45.4927 23.5111 45.01 22.4111C44.5386 21.3111 44.2917 20.0222 44.2917 18.5444Z" fill="white"></path>
  <path d="M72.1734 33.1665L75.5407 11.0776H82.4101V42.1887H77.7407V19.8776L74.3285 42.1887H69.6591L65.9774 20.1887V42.1887H61.6672V11.0776H68.5366L72.1734 33.1665Z" fill="white"></path>
  <path d="M85.5979 18.5444C85.5979 16.0222 86.2377 14.0888 87.5285 12.7444C88.8193 11.3999 90.6714 10.7222 93.0959 10.7222C95.5204 10.7222 97.3724 11.3999 98.6632 12.7444C99.954 14.0888 100.594 16.0222 100.594 18.5444V34.7222C100.594 37.2444 99.954 39.1777 98.6632 40.5222C97.3724 41.8666 95.5204 42.5444 93.0959 42.5444C90.6714 42.5444 88.8193 41.8666 87.5285 40.5222C86.2377 39.1777 85.5979 37.2444 85.5979 34.7222V18.5444ZM90.5367 35.0333C90.5367 36.1555 90.7724 36.9555 91.2326 37.4111C91.6928 37.8666 92.3214 38.0999 93.0959 38.0999C93.8704 38.0999 94.4989 37.8666 94.9591 37.4111C95.4193 36.9555 95.6551 36.1555 95.6551 35.0333V18.2333C95.6551 17.1111 95.4193 16.3111 94.9591 15.8555C94.4989 15.3999 93.8704 15.1666 93.0959 15.1666C92.3214 15.1666 91.6928 15.3999 91.2326 15.8555C90.7724 16.3111 90.5367 17.1111 90.5367 18.2333V35.0333Z" fill="white"></path>
  <path d="M20.3723 58.8444L20.3611 50.8556L15.5121 57.6H15.0968L10.2478 50.8778V58.8333H9.41724V49.5H10.1244L15.3101 56.7111L20.4958 49.5H21.1917L21.2029 58.8333H20.3723V58.8444Z" fill="white"></path>
  <path d="M42.2601 58.2222V58.8333H34.2571V49.5H42.0132V50.1111H35.1101V53.7889H41.2948V54.3889H35.1101V58.2222H42.2601Z" fill="white"></path>
  <path d="M54.3489 49.511H58.9397C60.1407 49.511 61.207 49.711 62.1499 50.111C63.0815 50.511 63.8111 51.0665 64.3275 51.7665C64.8438 52.4777 65.102 53.2777 65.102 54.1777C65.102 55.0777 64.8438 55.8777 64.3275 56.5888C63.8111 57.2999 63.0815 57.8443 62.1499 58.2443C61.2183 58.6443 60.1519 58.8443 58.9397 58.8443H54.3489V49.511ZM58.8724 58.2221C59.9387 58.2221 60.8928 58.0554 61.7009 57.711C62.5203 57.3666 63.1489 56.8888 63.5866 56.2777C64.0244 55.6666 64.2489 54.9666 64.2489 54.1666C64.2489 53.3777 64.0244 52.6777 63.5866 52.0554C63.1489 51.4443 62.5203 50.9665 61.7009 50.6221C60.8815 50.2777 59.9387 50.111 58.8724 50.111H55.1907V58.2221H58.8724Z" fill="white"></path>
  <path d="M77.0447 49.511H77.8865V58.8443H77.0447V49.511Z" fill="white"></path>
  <path d="M98.1245 56.2111H91.4011L89.9307 58.8333H89.0103L94.3419 49.5H95.1837L100.515 58.8333H99.6062L98.1245 56.2111ZM97.8103 55.6444L94.7572 50.2556L91.7266 55.6444H97.8103Z" fill="white"></path>
</svg>